<?xml version="1.0" encoding="UTF-8" standalone="no"?>
<!-- Created with Inkscape (http://www.inkscape.org/) -->

<svg
   width="512"
   height="512"
   viewBox="0 0 135.46666 135.46667"
   version="1.1"
   id="svg5"
   xmlns="http://www.w3.org/2000/svg"
   xmlns:svg="http://www.w3.org/2000/svg">
  <defs
     id="defs2" />
  <g
     id="layer1">
    <rect
       style="fill:#ffffff;stroke-width:3;stroke-linecap:round;stroke-linejoin:round"
       id="rect187"
       width="105.72761"
       height="7.89153"
       x="14.86953"
       y="107.75307" />
    <path
       id="path70"
       style="fill:#ffffff;fill-opacity:1;stroke:none;stroke-width:0.264583px;stroke-linecap:butt;stroke-linejoin:miter;stroke-opacity:1"
       d="m 69.133765,21.955762 13.323735,0.42633 13.854451,0.366386 v 0.077 2.793111 0.586011 c -4.880953,5.809565 -14.008115,18.774476 -13.907161,34.397384 0.05595,8.658463 1.248678,16.883788 2.645316,23.599076 v 5.17e-4 c 0.107399,0.516387 0.215659,1.023834 0.325045,1.521871 v 5.16e-4 c 0.559071,2.5454 1.137194,4.833408 1.680517,6.82129 1.759566,4.873121 3.251482,7.841856 3.251482,7.841856 l -0.80667,0.0274 c 0.0087,0.0234 0.0677,0.19017 0.0677,0.19017 l -8.989116,0.11524 -2.661853,0.0909 H 73.674056 61.793128 57.549976 l -2.661853,-0.0909 -8.989116,-0.11524 c 0,0 0.05854,-0.16686 0.06718,-0.19017 l -0.806669,-0.0274 c 0,0 1.491915,-2.968735 3.251481,-7.841856 0.543322,-1.987882 1.121448,-4.27589 1.680517,-6.82129 v -5.16e-4 c 0.10939,-0.498037 0.218162,-1.005484 0.325562,-1.521871 V 84.20106 C 51.813717,77.48577 53.006495,69.260445 53.062395,60.601982 53.163344,44.979074 44.035671,32.014163 39.154716,26.204598 v -0.586011 -2.793111 -0.077 l 13.854969,-0.366386 13.323734,-0.42633 1.399915,0.03721 z" />
  </g>
</svg>
