<?xml version="1.0" encoding="UTF-8" standalone="no"?>
<!-- Created with Inkscape (http://www.inkscape.org/) -->

<svg
   width="512"
   height="512"
   viewBox="0 0 135.46667 135.46667"
   version="1.1"
   id="svg5"
   xmlns="http://www.w3.org/2000/svg"
   xmlns:svg="http://www.w3.org/2000/svg">
  <defs
     id="defs2" />
  <g
     id="layer1">
    <path
       id="rect359"
       style="display:none;fill:#ffffff;fill-opacity:1;stroke-width:0.25934"
       d="m 90.222917,-11.1125 v 0.529167 H 91.28125 V -11.1125 Z M 5.0601562,5.6409993 V 16.64963 h 7.9023598 c 3.952146,-4.342029 8.58874,-8.0513655 13.667383,-11.0086307 z m 79.9449908,0 C 90.050875,8.6070446 94.654174,12.328717 98.600183,16.64963 H 130.40651 V 5.6409993 Z M 5.0601562,21.787301 v 5.999633 C 5.894994,26.257741 6.797079,24.76471 7.7726522,23.319507 8.1133947,22.802049 8.4645524,22.291927 8.8227173,21.787301 Z m 97.7139338,0 c 1.0286,1.429565 1.9941,2.905273 2.88251,4.428153 1.27084,2.116491 2.38604,4.31728 3.35225,6.580477 h 21.39766 v -11.00863 z m 8.13284,16.146301 c 1.12884,3.580532 1.90091,7.273165 2.31768,11.008113 h 17.1819 V 37.933602 Z m 2.66547,16.146301 c 0.0889,3.683432 -0.16384,7.37443 -0.76171,11.008114 h 17.59582 V 54.079903 Z m -1.84899,16.146301 c -0.94023,3.620669 -2.2301,7.149361 -3.88245,10.513054 0.16487,0.165002 0.32968,0.330059 0.49455,0.49506 h 22.071 V 70.226204 Z M 5.0601562,86.371989 v 11.00863 H 15.880684 C 12.452933,94.095114 9.426349,90.388214 6.8900187,86.371989 Z m 108.4094038,0 c 3.66679,3.669393 7.333,7.339294 10.99985,11.00863 h 5.9371 V 86.371989 Z M 5.0601562,102.51829 v 11.00863 H 86.959033 c -1.991732,-1.99045 -3.983501,-3.98088 -5.975346,-5.97121 -3.110667,1.52505 -6.369667,2.74395 -9.709485,3.66282 -13.9492,3.97826 -29.364275,2.30426 -42.205175,-4.40851 -2.445413,-1.25167 -4.78676,-2.69209 -7.012492,-4.29173 z m 124.5433038,0 c 0.26767,0.26787 0.53538,0.5357 0.80305,0.80357 v -0.80357 z M 5.0601562,118.66459 v 11.00863 H 103.1167 c -3.672094,-3.66956 -7.344441,-7.33891 -11.016379,-11.00863 z m 125.3463538,5.67097 c -1.77906,1.7792 -3.55796,3.55859 -5.33714,5.33766 h 5.33714 z" />
    <path
       style="fill:none;stroke:#ffffff;stroke-width:9.56264;stroke-dasharray:none;stroke-opacity:1"
       id="path480"
       d="M 61.657673,50.178852 63.049025,79.133475 34.183829,76.467666 16.637994,99.542538 -3.7604797,78.94622 -32.033611,85.344352 -34.42069,56.454771 -60.191805,43.182406 -43.45055,19.517317 -54.661057,-7.2152575 l 28.036171,-7.3674375 8.595621,-27.684316 26.2126511,12.377519 24.3797629,-15.682257 12.12394,26.330897 28.756342,3.657703 -7.637697,27.963755 19.67751,21.286184 z"
       transform="matrix(0.82289335,0,0,0.837276,57.185472,45.077271)" />
  </g>
</svg>
