<?xml version="1.0" encoding="UTF-8" standalone="no"?>
<!-- Created with Inkscape (http://www.inkscape.org/) -->

<svg
   width="512"
   height="512"
   viewBox="0 0 135.46667 135.46667"
   version="1.1"
   id="svg5"
   xmlns="http://www.w3.org/2000/svg"
   xmlns:svg="http://www.w3.org/2000/svg">
  <defs
     id="defs2" />
  <g
     id="layer1">
    <path
       id="rect359"
       style="display:none;fill:#ffffff;fill-opacity:1;stroke-width:0.25934"
       d="m 90.222917,-11.1125 v 0.529167 H 91.28125 V -11.1125 Z M 5.0601562,5.6409993 V 16.64963 h 7.9023598 c 3.952146,-4.342029 8.58874,-8.0513655 13.667383,-11.0086307 z m 79.9449908,0 C 90.050875,8.6070446 94.654174,12.328717 98.600183,16.64963 H 130.40651 V 5.6409993 Z M 5.0601562,21.787301 v 5.999633 C 5.894994,26.257741 6.797079,24.76471 7.7726522,23.319507 8.1133947,22.802049 8.4645524,22.291927 8.8227173,21.787301 Z m 97.7139338,0 c 1.0286,1.429565 1.9941,2.905273 2.88251,4.428153 1.27084,2.116491 2.38604,4.31728 3.35225,6.580477 h 21.39766 v -11.00863 z m 8.13284,16.146301 c 1.12884,3.580532 1.90091,7.273165 2.31768,11.008113 h 17.1819 V 37.933602 Z m 2.66547,16.146301 c 0.0889,3.683432 -0.16384,7.37443 -0.76171,11.008114 h 17.59582 V 54.079903 Z m -1.84899,16.146301 c -0.94023,3.620669 -2.2301,7.149361 -3.88245,10.513054 0.16487,0.165002 0.32968,0.330059 0.49455,0.49506 h 22.071 V 70.226204 Z M 5.0601562,86.371989 v 11.00863 H 15.880684 C 12.452933,94.095114 9.426349,90.388214 6.8900187,86.371989 Z m 108.4094038,0 c 3.66679,3.669393 7.333,7.339294 10.99985,11.00863 h 5.9371 V 86.371989 Z M 5.0601562,102.51829 v 11.00863 H 86.959033 c -1.991732,-1.99045 -3.983501,-3.98088 -5.975346,-5.97121 -3.110667,1.52505 -6.369667,2.74395 -9.709485,3.66282 -13.9492,3.97826 -29.364275,2.30426 -42.205175,-4.40851 -2.445413,-1.25167 -4.78676,-2.69209 -7.012492,-4.29173 z m 124.5433038,0 c 0.26767,0.26787 0.53538,0.5357 0.80305,0.80357 v -0.80357 z M 5.0601562,118.66459 v 11.00863 H 103.1167 c -3.672094,-3.66956 -7.344441,-7.33891 -11.016379,-11.00863 z m 125.3463538,5.67097 c -1.77906,1.7792 -3.55796,3.55859 -5.33714,5.33766 h 5.33714 z" />
    <path
       id="path5759"
       style="color:#000000;fill:#ffffff;stroke-width:7.9375"
       d="M 85.661957 1.0614339 L 63.625575 15.483293 L 39.935031 4.1015585 L 32.165996 29.559954 L 6.8249066 36.334734 L 16.958655 60.918247 L 1.8267619 82.68281 L 25.119914 94.888784 L 27.276889 121.45564 L 52.831402 115.57176 L 71.268003 134.51221 L 87.126467 113.29231 L 113.21635 115.74384 L 111.95751 89.11601 L 133.49263 73.93244 L 115.70715 54.355857 L 122.61009 28.639079 L 96.619945 25.277011 L 85.661957 1.0614339 z M 82.789781 38.190435 L 97.665876 47.892168 L 64.738169 102.98803 L 36.867001 76.997886 L 46.569252 67.296152 L 60.798358 82.172247 L 82.789781 38.190435 z " />
  </g>
</svg>
