<?xml version="1.0" encoding="UTF-8" standalone="no"?>
<!-- Created with Inkscape (http://www.inkscape.org/) -->

<svg
   width="512"
   height="512"
   viewBox="0 0 135.46666 135.46667"
   version="1.1"
   id="svg5"
   xmlns="http://www.w3.org/2000/svg"
   xmlns:svg="http://www.w3.org/2000/svg">
  <defs
     id="defs2" />
  <g
     id="layer1">
    <path
       id="path70"
       style="fill:#ffffff;fill-opacity:1;stroke:none;stroke-width:0.264583px;stroke-linecap:butt;stroke-linejoin:miter;stroke-opacity:1"
       d="m 61.49876,90.963696 c 0,0 4.086382,40.562084 6.234572,40.562084 2.148193,0 6.234574,-40.562084 6.234574,-40.562084 z" />
    <path
       id="path70-5"
       style="fill:#ffffff;fill-opacity:1;stroke:none;stroke-width:0.264583px;stroke-linecap:butt;stroke-linejoin:miter;stroke-opacity:1"
       d="M 69.133765,7.2533488 82.4575,7.6796785 96.311951,8.0460642 v 0.077 2.7931098 0.586011 C 91.430998,17.31175 82.303836,30.276661 82.40479,45.899569 c 0.05595,8.658463 1.248678,16.883788 2.645316,23.599076 v 5.17e-4 c 0.107399,0.516387 0.215659,1.023834 0.325045,1.521871 v 5.16e-4 c 0.559071,2.5454 1.137194,4.833408 1.680517,6.82129 1.759566,4.873121 3.251482,7.841856 3.251482,7.841856 l -0.80667,0.0274 c 0.0087,0.0234 0.0677,0.19017 0.0677,0.19017 l -8.989116,0.11524 -2.661853,0.0909 H 73.674056 61.793128 57.549976 l -2.661853,-0.0909 -8.989116,-0.11524 c 0,0 0.05854,-0.16686 0.06718,-0.19017 l -0.806669,-0.0274 c 0,0 1.491915,-2.968735 3.251481,-7.841856 0.543322,-1.987882 1.121448,-4.27589 1.680517,-6.82129 v -5.16e-4 c 0.10939,-0.498037 0.218162,-1.005484 0.325562,-1.521871 v -5.17e-4 C 51.813717,62.783355 53.006495,54.55803 53.062395,45.899567 53.163344,30.276659 44.035671,17.311748 39.154716,11.502183 v -0.586011 -2.7931098 -0.077 l 13.854969,-0.3663857 13.323734,-0.4263297 1.399915,0.03721 z" />
  </g>
</svg>
