<?xml version="1.0" encoding="UTF-8" standalone="no"?>
<!-- Created with Inkscape (http://www.inkscape.org/) -->

<svg
   width="512"
   height="512"
   viewBox="0 0 135.46667 135.46667"
   version="1.1"
   id="svg5"
   sodipodi:docname="search.svg"
   inkscape:version="1.2 (dc2aedaf03, 2022-05-15)"
   xmlns:inkscape="http://www.inkscape.org/namespaces/inkscape"
   xmlns:sodipodi="http://sodipodi.sourceforge.net/DTD/sodipodi-0.dtd"
   xmlns="http://www.w3.org/2000/svg"
   xmlns:svg="http://www.w3.org/2000/svg">
  <sodipodi:namedview
     id="namedview138"
     pagecolor="#505050"
     bordercolor="#ffffff"
     borderopacity="1"
     inkscape:showpageshadow="0"
     inkscape:pageopacity="0"
     inkscape:pagecheckerboard="1"
     inkscape:deskcolor="#505050"
     showgrid="false"
     inkscape:zoom="1.671875"
     inkscape:cx="256"
     inkscape:cy="256"
     inkscape:window-width="1920"
     inkscape:window-height="1059"
     inkscape:window-x="0"
     inkscape:window-y="0"
     inkscape:window-maximized="1"
     inkscape:current-layer="layer1" />
  <defs
     id="defs2" />
  <g
     id="layer1">
    <path
       id="path117"
       style="display:inline;fill:#ffffff;fill-opacity:1;stroke-width:0.269995"
       d="M 54.628906,4.2246094 C 40.644429,4.4126135 26.709964,10.728486 17.330078,21.21875 c -0.0022,0.0024 -0.0037,0.0054 -0.0059,0.0078 -8.0649951,8.919401 -12.8111253,20.80426 -13.1816409,32.722657 -4.01e-5,0.0013 4e-5,0.0026 0,0.0039 -0.3464247,9.859378 2.2821993,19.882541 7.4160159,28.300781 5.131563,8.468682 12.789825,15.534364 21.861328,19.781254 0.0019,8.8e-4 0.004,0.001 0.0059,0.002 5.590511,2.65734 11.733841,4.29713 17.804688,4.81641 8.05891,0.67129 16.284198,-0.62156 23.720703,-3.65821 2.473564,-0.97629 4.764454,-2.2484 6.96875,-3.470701 0.03924,0.03581 0.07992,0.07376 0.123047,0.117188 0.115084,0.115906 0.23437,0.247113 0.355469,0.394533 a 3.1000001,3.1000001 0 0 0 0.205078,0.22851 c 9.684077,9.66307 19.367834,19.31767 29.035154,28.99414 a 3.1000001,3.1000001 0 0 0 4.38477,0 L 129.35742,116.125 a 3.1000001,3.1000001 0 0 0 0.002,-4.38281 C 119.45179,101.8285 109.54284,91.916284 99.636719,82.001953 103.0244,76.217893 105.41718,69.759349 106.40234,63.087891 a 3.1000001,3.1000001 0 0 0 0.002,-0.01367 c 0.59618,-4.167801 0.74515,-8.781666 0.25,-13.085938 -0.65768,-6.059701 -2.4839,-12.084935 -5.21289,-17.503906 -2.157144,-4.279008 -5.014834,-8.43087 -8.318363,-11.949219 l -0.002,-0.002 C 83.345987,10.020718 69.010463,3.9304057 54.636719,4.2246094 Z M 106.6543,49.988281 c 2.2e-4,0.002 0.002,0.0038 0.002,0.0059 l -0.002,-0.02148 c 5.8e-4,0.0051 -5.9e-4,0.01053 0,0.01563 z M 55.039062,15.078125 a 3.1000001,3.1000001 0 0 0 0.01172,0 c 13.346057,-0.182548 26.600983,6.722805 33.953125,17.861328 a 3.1000001,3.1000001 0 0 0 0.02539,0.03711 c 7.13479,10.489169 8.886606,24.429417 4.46875,36.31836 a 3.1000001,3.1000001 0 0 0 -0.0098,0.0293 C 89.94984,79.142603 82.519556,87.450129 73.105469,91.931641 a 3.1000001,3.1000001 0 0 0 -0.02344,0.0098 c -9.539437,4.635205 -20.862604,5.373953 -30.84375,1.833985 a 3.1000001,3.1000001 0 0 0 -0.02539,-0.0078 C 32.445854,90.39201 24.032456,83.165771 19.414062,73.943359 a 3.1000001,3.1000001 0 0 0 -0.0098,-0.02148 C 14.712947,64.730893 13.654846,53.710213 16.708984,43.875 a 3.1000001,3.1000001 0 0 0 0.0078,-0.0293 C 19.626182,34.152988 26.29736,25.624547 35.064453,20.597656 a 3.1000001,3.1000001 0 0 0 0.01563,-0.0098 c 6.038544,-3.508624 12.987356,-5.440698 19.958984,-5.509766 z" />
    <path
       id="rect359"
       style="display:none;fill:#ffffff;fill-opacity:1;stroke-width:0.25934"
       d="m 90.222917,-11.1125 v 0.529167 H 91.28125 V -11.1125 Z M 5.0601562,5.6409993 V 16.64963 h 7.9023598 c 3.952146,-4.342029 8.58874,-8.0513655 13.667383,-11.0086307 z m 79.9449908,0 C 90.050875,8.6070446 94.654174,12.328717 98.600183,16.64963 H 130.40651 V 5.6409993 Z M 5.0601562,21.787301 v 5.999633 C 5.894994,26.257741 6.797079,24.76471 7.7726522,23.319507 8.1133947,22.802049 8.4645524,22.291927 8.8227173,21.787301 Z m 97.7139338,0 c 1.0286,1.429565 1.9941,2.905273 2.88251,4.428153 1.27084,2.116491 2.38604,4.31728 3.35225,6.580477 h 21.39766 v -11.00863 z m 8.13284,16.146301 c 1.12884,3.580532 1.90091,7.273165 2.31768,11.008113 h 17.1819 V 37.933602 Z m 2.66547,16.146301 c 0.0889,3.683432 -0.16384,7.37443 -0.76171,11.008114 h 17.59582 V 54.079903 Z m -1.84899,16.146301 c -0.94023,3.620669 -2.2301,7.149361 -3.88245,10.513054 0.16487,0.165002 0.32968,0.330059 0.49455,0.49506 h 22.071 V 70.226204 Z M 5.0601562,86.371989 v 11.00863 H 15.880684 C 12.452933,94.095114 9.426349,90.388214 6.8900187,86.371989 Z m 108.4094038,0 c 3.66679,3.669393 7.333,7.339294 10.99985,11.00863 h 5.9371 V 86.371989 Z M 5.0601562,102.51829 v 11.00863 H 86.959033 c -1.991732,-1.99045 -3.983501,-3.98088 -5.975346,-5.97121 -3.110667,1.52505 -6.369667,2.74395 -9.709485,3.66282 -13.9492,3.97826 -29.364275,2.30426 -42.205175,-4.40851 -2.445413,-1.25167 -4.78676,-2.69209 -7.012492,-4.29173 z m 124.5433038,0 c 0.26767,0.26787 0.53538,0.5357 0.80305,0.80357 v -0.80357 z M 5.0601562,118.66459 v 11.00863 H 103.1167 c -3.672094,-3.66956 -7.344441,-7.33891 -11.016379,-11.00863 z m 125.3463538,5.67097 c -1.77906,1.7792 -3.55796,3.55859 -5.33714,5.33766 h 5.33714 z" />
  </g>
</svg>
